<svg width="100" height="100" viewBox="0 0 100 100" xmlns="http://www.w3.org/2000/svg">
  <path d="M50,10 C30,10 15,25 15,45 C15,55 20,65 30,70 C35,72.5 35,75 35,80 L65,80 C65,75 65,72.5 70,70 C80,65 85,55 85,45 C85,25 70,10 50,10 Z" fill="#7c3aed" stroke="#4c1d95" stroke-width="2"/>
  <path d="M35,80 L65,80 L65,85 C65,87.5 62.5,90 60,90 L40,90 C37.5,90 35,87.5 35,85 Z" fill="#10b981" stroke="#059669" stroke-width="2"/>
  <path d="M45,70 C45,75 47.5,80 50,80 C52.5,80 55,75 55,70 Z" fill="#4c1d95"/>
  <path d="M30,40 C30,45 35,50 40,50 C45,50 50,45 50,40 C50,35 45,30 40,30 C35,30 30,35 30,40 Z" fill="#f0f0f0" stroke="#4c1d95" stroke-width="1"/>
  <path d="M50,40 C50,45 55,50 60,50 C65,50 70,45 70,40 C70,35 65,30 60,30 C55,30 50,35 50,40 Z" fill="#f0f0f0" stroke="#4c1d95" stroke-width="1"/>
  <circle cx="40" cy="40" r="5" fill="#4c1d95"/>
  <circle cx="60" cy="40" r="5" fill="#4c1d95"/>
</svg>
